<svg xmlns="http://www.w3.org/2000/svg" xmlns:xlink="http://www.w3.org/1999/xlink" width="154.265" height="158.122" viewBox="0 0 154.265 158.122"><path d="M103.47 124.99l3.68 25.585s11.391 8.937 15.421 7.36c4.031-1.577 5.608-6.309 1.577-8.587s-14.019-1.577-14.019-1.577l.876-20.328-7.535-3.154M81.809 124.99l-3.68 25.585s-11.391 8.937-15.421 7.36c-4.031-1.577-5.608-6.309-1.577-8.587s14.019-1.577 14.019-1.577l-.876-20.328 7.535-3.154"/><path fill="#EF3C3C" d="M83.571 8.922S49.937-9.194 23.066 6.203C2.64 17.908-4.806 62.991 3.089 108.895c8.035 46.716 71.849 9.814 71.849 9.814L83.571 8.922z"/><defs><path id="a" d="M83.571 8.922S50.638-9.194 23.767 6.203C3.341 17.908-4.105 62.991 3.79 108.895c8.035 46.716 71.849 9.814 71.849 9.814L83.571 8.922z"/></defs><clipPath id="b"><use xlink:href="#a" overflow="visible"/></clipPath><g clip-path="url(#b)" fill="#FFD2B3"><path d="M43.801 48.386c19.081 13.156 38.244 10.191 39.156 10.275l.401-14.597c-.198-.019-20.055-2.008-36.958-13.661C25.764 16.175 18.236-7.455 18.162-7.692L8.784-4.804c.336 1.098 11.496 36.975 35.017 53.19zM84.599 37.226c21.963 7.402 39.573-.718 40.472-.888l-3.628-14.145c-.196.036-19.835 3.584-39.29-2.972C58.4 11.216 44.664-9.433 44.528-9.641l-8.223 5.355c.626.964 21.221 32.389 48.294 41.512zM39.289 67.155C14.658 48.375 6.788 18.802 6.711 18.506l-4.752 1.221-3.351 1.215c.342 1.342 5.761 42.752 33.179 63.655 22.261 16.971 49.777 11.13 50.872 11.283l1.366-9.718c-.243-.035-24.58-3.642-44.736-19.007z"/><path d="M23.869 98.606C.48 78.299-5.497 48.286-5.554 47.985l-4.82.917-1.423.127c.257 1.362 4.083 40.845 30.118 63.449 21.137 18.351 46.295 13.139 47.377 13.362l1.603-5.423c-.24-.049-24.215-5.127-43.432-21.811z"/></g><path fill="#EF3C3C" d="M125.133 96.426l-1.62-5.368c.16-.049 16.122-4.983 20.948-14.715 4.158-8.384-11.374-17.756-11.533-17.847l2.829-4.844c.83.485 20.254 12.023 13.729 25.183-5.91 11.917-23.603 17.365-24.353 17.591z"/><path opacity=".2" d="M53.15 24.803s-7.711-5.608-1.051-10.164 14.019 0 14.019 0 2.736-7.296 9.128-8.832c1.533-.368 3.276-.405 5.242.07 10.164 2.453 15.421 14.37 15.421 14.37l15.421 100.589-16.167 4.556s-45.168 7.448-52.177 6.002c-7.01-1.446-10.982-1.796-10.514-5.535.467-3.738 2.103-3.505 2.103-3.505l-.935-2.57s-13.669.953-15.188-8.879c-1.227-7.944 5.841-10.047 5.841-10.047s-5.491-2.278-6.075-8.412c-.54-5.664 3.038-8.178 3.038-8.178s-10.047-3.505-7.477-12.865c2.266-8.251 6.776-8.397 6.776-8.397s-2.103-10.047 3.505-17.524c4.462-5.949 8.178-5.608 8.178-5.608s-1.168-8.412 5.374-14.019 15.538-1.052 15.538-1.052z"/><path fill="#FFF" d="M62.904 24.803s-7.711-5.608-1.051-10.164c6.659-4.556 14.019 0 14.019 0S78.608 7.342 85 5.807c1.533-.368 3.276-.405 5.242.07 10.164 2.453 15.421 14.37 15.421 14.37s11.215-8.061 18.576-2.804c7.36 5.257 6.659 16.823 6.659 16.823s3.855 0 5.257 3.154c1.402 3.154 2.453 7.01 2.453 7.01s2.979.701 4.732 5.491c2.009 5.491-1.227 9.229-1.227 9.229s6.192 5.257 4.206 14.37c-.982 4.504-5.608 7.36-5.608 7.36s4.101 1.742 4.206 7.36c.043 2.285-1.051 5.608-1.051 5.608s11.215 3.154 7.01 12.267-15.421 4.907-15.421 4.907 3.154 6.659-2.103 9.814c-5.257 3.154-12.267 0-12.267 0s3.154 5.958-1.402 7.36-14.765-2.804-14.765-2.804-4.515 8.347-12.923 8.762c-6.542.323-8.412-3.855-8.412-3.855s-1.752 4.247-7.36 3.876-7.01-3.175-7.01-3.175-9.463 4.644-16.473 3.198c-7.01-1.446-12.384-4.6-11.916-8.338.467-3.738 3.505-3.505 3.505-3.505l-.935-2.57s-13.669.953-15.188-8.879c-1.227-7.944 5.841-10.047 5.841-10.047s-5.491-2.278-6.075-8.412c-.54-5.664 3.038-8.178 3.038-8.178s-10.047-3.505-7.477-12.865c2.266-8.251 6.776-8.397 6.776-8.397s-2.103-10.047 3.505-17.524c4.462-5.949 8.178-5.608 8.178-5.608s-1.168-8.412 5.374-14.019 15.538-1.053 15.538-1.053z"/><defs><path id="c" d="M62.904 24.803s-7.711-5.608-1.051-10.164c6.659-4.556 14.019 0 14.019 0S78.608 7.342 85 5.807c1.533-.368 3.276-.405 5.242.07 10.164 2.453 15.421 14.37 15.421 14.37s11.215-8.061 18.576-2.804c7.36 5.257 6.659 16.823 6.659 16.823s3.855 0 5.257 3.154c1.402 3.154 2.453 7.01 2.453 7.01s2.979.701 4.732 5.491c2.009 5.491-1.227 9.229-1.227 9.229s6.192 5.257 4.206 14.37c-.982 4.504-5.608 7.36-5.608 7.36s4.101 1.742 4.206 7.36c.043 2.285-1.051 5.608-1.051 5.608s11.215 3.154 7.01 12.267-15.421 4.907-15.421 4.907 3.154 6.659-2.103 9.814c-5.257 3.154-12.267 0-12.267 0s3.154 5.958-1.402 7.36-14.765-2.804-14.765-2.804-4.515 8.347-12.923 8.762c-6.542.323-8.412-3.855-8.412-3.855s-1.752 4.247-7.36 3.876-7.01-3.175-7.01-3.175-9.463 4.644-16.473 3.198c-7.01-1.446-12.384-4.6-11.916-8.338.467-3.738 3.505-3.505 3.505-3.505l-.935-2.57s-13.669.953-15.188-8.879c-1.227-7.944 5.841-10.047 5.841-10.047s-5.491-2.278-6.075-8.412c-.54-5.664 3.038-8.178 3.038-8.178s-10.047-3.505-7.477-12.865c2.266-8.251 6.776-8.397 6.776-8.397s-2.103-10.047 3.505-17.524c4.462-5.949 8.178-5.608 8.178-5.608s-1.168-8.412 5.374-14.019 15.538-1.053 15.538-1.053z"/></defs><clipPath id="d"><use xlink:href="#c" overflow="visible"/></clipPath><path clip-path="url(#d)" fill="#D5D0D6" d="M83.571 0s21.477 15.876 15.051 22.67c-.873.923-3.134 2.607-3.134 2.607s10.69-2.629 13.993 2.238c5.701 8.398-3.712 14.266-3.712 14.266l.467 4.058s8.636-4.795 11.449-.701c3.822 5.563-2.996 11.157-2.996 11.157s3.493 7.711 1.04 17.875c-2.128 8.815-7.389 13.961-7.389 13.961s7.22-1.141 8.266 3.914c1.051 5.082-3.563 9.171-3.563 9.171s8.149 6.542 4.877 12.384c-3.271 5.841-13.584 3.038-13.584 3.038l.584 8.754 16.284 12.041 43.681-2.956s11.449-40.971 11.449-41.672-11.683-50.173-11.916-51.022c-.234-.849-24.066-25.617-24.066-25.617L83.571 0z"/><path fill="#FFF" stroke="#000" stroke-width="1.402" stroke-linecap="round" stroke-miterlimit="10" d="M86.765 75.893s1.216 4.597 7.184 4.615c6.133.018 7.476-5.024 7.476-5.024"/><path d="M92.693 50.723c-2.907.289-4.249 5.732-5.807 9.484-2.191 5.278-5.139 9.932-10.85 11.965-5.968 2.125-12.031 2.194-17.881-.292-5.391-2.291-7.893-6.901-8.796-12.471-.25-1.54-.317-3.119-.356-4.682-.047-1.906.219-3.601-1.496-5.327-2.103-2.116-1.238-6.16 2.637-6.68 8.981-1.204 17.952-1.258 26.929-.111 4.191.536 11.65 2.022 15.621 1.891v6.223z"/><path fill="#606060" d="M62.915 70.22c-8.795-2.239-13.185-12.406-8.611-20.273 3.972-6.832 16.473-5.386 21.765-3.847 5.547 1.613 7.614 4.727 7.199 10.449-.748 10.222-8.757 16.623-20.353 13.671z"/><path d="M92.693 44.5c3.97.131 11.43-1.356 15.621-1.891 8.977-1.147 17.948-1.093 26.929.111 3.875.519 4.74 4.564 2.637 6.68-1.715 1.725-1.449 3.421-1.496 5.327-.039 1.564-.106 3.142-.356 4.682-.903 5.57-3.405 10.18-8.796 12.471-5.85 2.486-11.913 2.418-17.881.292-5.711-2.034-8.659-6.687-10.85-11.965-1.558-3.752-2.9-9.195-5.807-9.484V44.5z"/><path fill="#606060" d="M122.471 70.22c8.795-2.239 13.185-12.406 8.611-20.273-3.972-6.832-16.473-5.386-21.765-3.847-5.547 1.613-7.614 4.727-7.199 10.449.749 10.222 8.758 16.623 20.353 13.671z"/><path fill="none" stroke="#FFF" stroke-width="4.206" stroke-linecap="round" stroke-miterlimit="10" d="M116.867 49.461s9.46-1.876 10.69 6.834M67.894 49.546s9.46-1.876 10.69 6.834"/><path fill="none" d="M62.904 24.803s-7.711-5.608-1.051-10.164c6.659-4.556 14.019 0 14.019 0S78.608 7.342 85 5.807c1.533-.368 3.276-.405 5.242.07 10.164 2.453 15.421 14.37 15.421 14.37s11.215-8.061 18.576-2.804c7.36 5.257 6.659 16.823 6.659 16.823s3.855 0 5.257 3.154c1.402 3.154 2.453 7.01 2.453 7.01s2.979.701 4.732 5.491c2.009 5.491-1.227 9.229-1.227 9.229s6.192 5.257 4.206 14.37c-.982 4.504-5.608 7.36-5.608 7.36s4.101 1.742 4.206 7.36c.043 2.285-1.051 5.608-1.051 5.608s11.215 3.154 7.01 12.267-15.421 4.907-15.421 4.907 3.154 6.659-2.103 9.814c-5.257 3.154-12.267 0-12.267 0s3.154 5.958-1.402 7.36-14.765-2.804-14.765-2.804-4.515 8.347-12.923 8.762c-6.542.323-8.412-3.855-8.412-3.855s-1.752 4.247-7.36 3.876-7.01-3.175-7.01-3.175-9.463 4.644-16.473 3.198c-7.01-1.446-12.384-4.6-11.916-8.338.467-3.738 3.505-3.505 3.505-3.505l-.935-2.57s-13.669.953-15.188-8.879c-1.227-7.944 5.841-10.047 5.841-10.047s-5.491-2.278-6.075-8.412c-.54-5.664 3.038-8.178 3.038-8.178s-10.047-3.505-7.477-12.865c2.266-8.251 6.776-8.397 6.776-8.397s-2.103-10.047 3.505-17.524c4.462-5.949 8.178-5.608 8.178-5.608s-1.168-8.412 5.374-14.019 15.538-1.053 15.538-1.053z"/><g><path d="M154.251 89.825c-.26 6.296-4.647 10.077-4.75 10.254l-1.184-.472c.023-.041 3.683-3.877 3.89-10.191.102-3.111-3.661-8.68-3.727-8.743l1.346-2.337c.17.161 4.717 4.421 4.425 11.489z"/><path fill="none" stroke="#000" stroke-width="1.402" stroke-linecap="round" stroke-miterlimit="10" d="M148.603 99.313l-8.035-1.104M149.062 99.654l-7.811 3.517M149.481 99.348l-3.48 7.645"/></g><g><path fill="#EF3C3C" d="M32.4 100.763s-1.49-.92-2.256-1.818c-.743-.87-1.599-2.256-1.599-2.256.14-.093 15.112-8.757 16.956-19.461 1.588-9.222-14.209-13.469-14.386-13.513 0 0-1.964.343-2.11-4.001-.039-1.164.241-3.33.241-3.33.935.227 24.274 7.32 21.781 21.797-2.258 13.108-17.974 22.152-18.627 22.582z"/></g><g><path d="M36.643 89.825c.526 6.279 4.647 10.077 4.75 10.254l1.184-.472c-.023-.041-3.569-3.882-3.89-10.191-.345-6.782 6.596-11.249 6.662-11.311 0 0 .347-.737.347-1.701 0-.832-.131-1.468-.131-1.468-.17.162-9.757 4.906-8.922 14.889z"/><path fill="none" stroke="#000" stroke-width="1.402" stroke-linecap="round" stroke-miterlimit="10" d="M42.292 99.313l8.035-1.104M41.832 99.654l7.812 3.517M41.414 99.348l3.48 7.645"/></g></svg>